<svg width="89" height="41" viewBox="0 0 89 41" fill="none" xmlns="http://www.w3.org/2000/svg">
<g clip-path="url(#clip0_90_849)">
<path d="M87.1452 33.9706H37.0659V39.1597C37.0659 40.1854 37.9036 41.0302 38.9207 41.0302H89V35.8411C89 34.7852 88.1624 33.9706 87.1452 33.9706ZM37.3651 39.1295V34.2421H53.9684V40.6682H38.8908C38.0531 40.6983 37.3651 40.0044 37.3651 39.1295Z" fill="#ABC100"/>
<mask id="mask0_90_849" style="mask-type:luminance" maskUnits="userSpaceOnUse" x="-29" y="-19" width="145" height="70">
<path d="M115.326 -18.3429H-28.6895V50.8352H115.326V-18.3429Z" fill="white"/>
</mask>
<g mask="url(#mask0_90_849)">
<mask id="mask1_90_849" style="mask-type:luminance" maskUnits="userSpaceOnUse" x="-29" y="-19" width="145" height="70">
<path d="M115.326 -18.3429H-28.6895V50.8352H115.326V-18.3429Z" fill="white"/>
</mask>
<g mask="url(#mask1_90_849)">
<path d="M50.5879 15.1148C50.4981 12.4297 48.8527 9.89552 45.9808 9.89552C43.1089 9.89552 41.4934 12.4599 41.1942 15.1148H50.5879ZM41.1942 16.6233C41.2242 19.2178 42.5704 22.3856 45.9808 22.3856C48.5536 22.3856 49.9895 20.847 50.528 18.6446H52.2931C51.5452 21.9632 49.6305 23.894 45.9808 23.894C41.3737 23.894 39.4292 20.3039 39.4292 16.1406C39.4292 12.2789 41.3737 8.38705 45.9808 8.38705C50.6477 8.38705 52.5025 12.4901 52.3529 16.6233H41.1942Z" fill="#313131"/>
<path d="M65.2169 15.9897C65.2169 13.1236 63.9006 9.92567 60.55 9.92567C57.1994 9.92567 55.7634 12.9728 55.7634 15.9897C55.7634 18.9463 57.2892 21.8124 60.55 21.8124C63.6313 21.7822 65.2169 18.9463 65.2169 15.9897ZM67.0118 22.2649C66.9819 26.6394 65.3366 29.2943 60.5799 29.2943C57.6781 29.2943 54.8061 27.997 54.5668 24.8594H56.3318C56.7208 27.0015 58.6055 27.7859 60.5799 27.7859C63.8408 27.7859 65.2468 25.8249 65.2468 22.2649V20.2737H65.187C64.3792 22.114 62.5544 23.2906 60.5799 23.2906C55.9429 23.2906 54.0283 19.9419 54.0283 15.7785C54.0283 11.7358 56.3917 8.41721 60.5799 8.41721C62.5544 8.41721 64.3493 9.56364 65.187 11.3436H65.2468V8.83958H67.0118V22.2649Z" fill="#313131"/>
<path d="M70.3921 8.8396H72.1571V23.4717H70.3921V8.8396ZM70.3921 3.22812H72.1571V6.0942H70.3921V3.22812Z" fill="#313131"/>
<path d="M84.273 13.1236C84.1833 10.9213 82.508 9.92569 80.4737 9.92569C78.8882 9.92569 77.0334 10.5592 77.0334 12.4599C77.0334 14.0589 78.8283 14.6019 80.0549 14.9338L82.4183 15.4768C84.4525 15.7785 86.5467 16.9853 86.5467 19.5497C86.5467 22.7175 83.4354 23.9544 80.713 23.9544C77.3325 23.9544 75.029 22.3554 74.7598 18.7954H76.5547C76.7043 21.209 78.4694 22.4459 80.8327 22.4459C82.4781 22.4459 84.8115 21.6917 84.8115 19.6704C84.8115 17.9809 83.226 17.4077 81.6404 17.0155L79.3668 16.5026C77.0633 15.869 75.3282 15.0846 75.3282 12.5806C75.3282 9.59383 78.23 8.47757 80.7729 8.47757C83.6747 8.47757 85.9783 10.0162 86.0979 13.184L84.273 13.1236Z" fill="#313131"/>
<path d="M18.2487 0C9.3637 0 2.15395 7.27079 2.15395 16.2311C2.15395 18.5843 2.66252 20.9375 3.64975 23.0795C1.46588 23.6829 0 23.894 0 24.5578C0 24.9198 0.179496 25.131 0.628235 25.131C1.19664 25.131 2.78219 24.8293 4.36773 24.4673C8.88504 32.1906 18.7573 34.7851 26.4158 30.2296C34.0743 25.674 36.6471 15.7182 32.1297 7.99485C29.2578 3.04709 23.9627 0 18.2487 0ZM18.2487 29.777C13.7613 29.777 9.54319 27.5143 7.06017 23.7432C8.88504 23.1096 11.5476 21.7822 11.5476 21.7822C12.7143 23.532 14.9879 25.2517 18.9667 25.2517C22.6763 25.2517 26.0269 22.8381 26.0269 21.7219C26.0568 20.9978 25.4884 20.3944 24.7704 20.3642C24.7405 20.3642 24.7405 20.3642 24.7106 20.3642C23.7533 20.3642 21.8686 22.2649 18.2487 22.2649C15.0477 22.2649 14.1203 20.3039 14.1203 20.3039C14.1203 20.3039 17.2316 18.3731 18.7872 16.8948C20.3429 15.4165 22.2276 12.9124 22.2276 10.5592C22.2276 8.20603 20.4625 7.0596 18.9667 7.0596C17.4709 7.0596 15.4666 7.54231 13.163 10.0464C11.4279 11.9772 10.4407 14.4812 10.4407 17.0758C10.4407 18.0714 10.5603 19.0971 10.7997 20.0625C9.33378 20.9073 7.80807 21.6313 6.22252 22.2347C2.96168 15.5372 5.68403 7.42163 12.3254 4.13319C18.9667 0.814569 27.0141 3.59014 30.3049 10.2877C33.5956 16.9853 30.8434 25.1008 24.202 28.4194C22.3472 29.2943 20.3129 29.777 18.2487 29.777ZM14.6887 12.7013C16.5136 9.86534 18.6676 9.26196 19.4454 9.89551C20.2232 10.5291 19.1163 12.9728 17.3213 14.9036C16.1247 16.1707 14.8084 17.3473 13.4323 18.3731C13.1331 16.3819 13.5818 14.3606 14.6887 12.7013Z" fill="#ABC100"/>
</g>
</g>
<path d="M42.2115 37.8021H40.267C40.267 37.9831 40.3268 38.1641 40.4465 38.3149C40.5661 38.4356 40.7755 38.5261 40.955 38.4959C41.0747 38.4959 41.2243 38.4658 41.3439 38.4356C41.4636 38.3753 41.5533 38.3149 41.6431 38.1943L42.1218 38.6468C41.8226 38.9787 41.3739 39.1597 40.9251 39.1295C40.7456 39.1295 40.5661 39.0993 40.3866 39.0692C40.2071 39.0088 40.0575 38.9183 39.9379 38.8278C39.7883 38.7071 39.6686 38.5261 39.6088 38.3149C39.5191 38.0736 39.4891 37.8021 39.4891 37.5305C39.4592 37.1082 39.6088 36.6858 39.8481 36.3539C40.3866 35.8109 41.2542 35.7807 41.8226 36.3238L41.8525 36.3539C42.0918 36.6556 42.2414 37.0478 42.2115 37.44V37.8021ZM41.4337 37.259C41.4337 37.1383 41.4038 37.0177 41.3739 36.9271C41.2243 36.6255 40.8952 36.5048 40.596 36.6556C40.4764 36.716 40.3866 36.8065 40.3268 36.9271C40.267 37.0478 40.267 37.1383 40.267 37.259H41.4337Z" fill="#313131"/>
<path d="M45.1434 36.2333L44.5451 36.8367C44.4254 36.716 44.2758 36.6556 44.1262 36.6556C44.0066 36.6556 43.857 36.716 43.7672 36.8065C43.6476 36.9272 43.6177 37.078 43.6177 37.2289V39.1295H42.8398V35.9919H43.5877V36.2936C43.6775 36.2031 43.7972 36.1126 43.9168 36.0523C44.0664 35.9919 44.216 35.9617 44.3656 35.9617C44.6647 35.9316 44.934 36.0523 45.1434 36.2333Z" fill="#313131"/>
<path d="M47.1473 39.1295H46.7285C46.4892 39.1597 46.2199 39.039 46.0704 38.858C45.9208 38.677 45.831 38.4658 45.831 38.2244V36.6556H45.502V36.0523H45.831V35.117H46.6088V36.0523H47.1473V36.6556H46.6088V38.1641C46.6088 38.3451 46.6986 38.4356 46.8781 38.4356H47.1473V39.1295Z" fill="#313131"/>
<path d="M49.092 39.1295H48.6432C48.374 39.1597 48.1346 39.039 47.9551 38.858C47.8056 38.677 47.7158 38.4658 47.7158 38.2244V34.8153H48.4936V38.1641C48.4637 38.2848 48.5535 38.4356 48.703 38.4356C48.733 38.4356 48.7629 38.4356 48.7629 38.4356H49.062L49.092 39.1295Z" fill="#313131"/>
<path d="M52.2631 37.8021H50.3186C50.3186 37.9831 50.3784 38.1641 50.4981 38.3149C50.6177 38.4356 50.8272 38.5261 51.0067 38.4959C51.1263 38.4959 51.2759 38.4658 51.3956 38.4356C51.5152 38.3753 51.605 38.3149 51.6947 38.1943L52.1734 38.6468C52.0238 38.7976 51.8443 38.9183 51.6648 39.0088C51.4554 39.0993 51.2161 39.1295 51.0067 39.1295C50.8272 39.1295 50.6477 39.0993 50.4682 39.0692C50.2887 39.0088 50.1391 38.9183 50.0194 38.8278C49.8698 38.7071 49.7502 38.5261 49.6904 38.3149C49.6006 38.0736 49.5707 37.8021 49.5707 37.5305C49.5408 37.1082 49.6904 36.6858 49.9297 36.3539C50.4682 35.8109 51.3357 35.7807 51.9041 36.3238L51.9341 36.3539C52.1734 36.6556 52.323 37.0478 52.293 37.44L52.2631 37.8021ZM51.4853 37.259C51.4853 37.1383 51.4554 37.0177 51.4255 36.9271C51.2759 36.6255 50.9468 36.5048 50.6477 36.6556C50.528 36.716 50.4382 36.8065 50.3784 36.9271C50.3186 37.0478 50.3186 37.1383 50.3186 37.259H51.4853Z" fill="#313131"/>
<path d="M58.2166 37.7719H56.2421C56.2421 38.0132 56.302 38.2244 56.4516 38.4054C56.6011 38.5563 56.8105 38.6468 57.02 38.6468C57.1695 38.6468 57.2892 38.6166 57.4388 38.5865C57.5584 38.5261 57.6781 38.4356 57.7679 38.3451L58.1568 38.7071C58.0072 38.858 57.8576 38.9787 57.6482 39.0692C57.4388 39.1597 57.2294 39.1898 57.02 39.1898C56.661 39.22 56.302 39.0692 56.0327 38.8278C55.7635 38.4959 55.6139 38.0434 55.6737 37.621C55.6438 37.1987 55.7635 36.8065 56.0327 36.4746C56.2721 36.2031 56.6011 36.0522 56.9601 36.0522C57.3191 36.0221 57.6781 36.1729 57.9174 36.4444C58.1568 36.7461 58.2764 37.1383 58.2465 37.5305L58.2166 37.7719ZM57.6183 37.3495C57.6183 37.1987 57.5884 37.078 57.5285 36.9271C57.3789 36.5953 56.9601 36.4444 56.6311 36.6255C56.4815 36.6858 56.3917 36.8065 56.3319 36.9271C56.2721 37.0478 56.2421 37.1987 56.2421 37.3495H57.6183Z" fill="#313131"/>
<path d="M61.4175 39.1295H60.8191V37.259C60.8191 37.078 60.7593 36.897 60.6396 36.7461C60.52 36.6255 60.3704 36.5651 60.1909 36.5651C60.0114 36.5651 59.8618 36.6255 59.7422 36.7461C59.6225 36.897 59.5627 37.078 59.5627 37.259V39.1295H58.9644V36.0824H59.5627V36.3841C59.7721 36.1428 60.0712 36.0221 60.3704 36.0523C60.6396 36.0523 60.9089 36.1428 61.1183 36.3238C61.3277 36.5651 61.4474 36.8668 61.4175 37.1987V39.1295Z" fill="#313131"/>
<path d="M64.6185 39.0993C64.6484 39.7631 64.1399 40.3665 63.4817 40.3966C63.4219 40.3966 63.392 40.3966 63.3321 40.3966C63.1227 40.3966 62.9133 40.3665 62.7338 40.3061C62.5543 40.2458 62.4047 40.1251 62.2551 40.0044L62.6441 39.6122C62.8235 39.7932 63.0629 39.8837 63.3022 39.8837C63.5116 39.9139 63.721 39.8234 63.8407 39.6726C63.9604 39.5217 64.0202 39.3105 64.0202 39.0993V38.7071C63.8407 38.9485 63.5415 39.0692 63.2424 39.0692C62.9731 39.0692 62.7039 38.9787 62.5244 38.7977C62.3748 38.6468 62.2851 38.496 62.2551 38.2848C62.1953 38.0434 62.1953 37.8021 62.1953 37.5305C62.1953 37.2892 62.2252 37.0177 62.2551 36.7763C62.2851 36.5953 62.4047 36.4143 62.5244 36.2634C62.7338 36.0824 62.9731 35.9919 63.2424 35.9919C63.5415 35.9919 63.8407 36.1126 64.0501 36.3539V36.0221H64.6484L64.6185 39.0993ZM63.9903 37.8926C64.0202 37.7719 64.0202 37.6512 64.0202 37.5305C64.0202 37.4099 64.0202 37.2892 63.9903 37.1685C63.9903 37.078 63.9604 36.9573 63.9005 36.8668C63.8706 36.7763 63.8108 36.6858 63.721 36.6255C63.6313 36.5651 63.5116 36.535 63.392 36.535C63.2723 36.535 63.1526 36.5651 63.0629 36.6255C62.9731 36.6858 62.9133 36.7461 62.8834 36.8668C62.8535 36.9573 62.8235 37.078 62.7936 37.1685C62.7936 37.2892 62.7637 37.4099 62.7637 37.5305C62.7637 37.6512 62.7637 37.7719 62.7936 37.8926C62.7936 37.9831 62.8235 38.1038 62.8834 38.1943C62.9133 38.2848 62.9731 38.3753 63.0629 38.4356C63.1526 38.496 63.2723 38.5261 63.392 38.5261C63.5116 38.5261 63.6313 38.496 63.721 38.4356C63.8108 38.3753 63.8706 38.3149 63.9005 38.1943C63.9604 38.1038 63.9903 37.9831 63.9903 37.8926Z" fill="#313131"/>
<path d="M66.1444 35.4488H65.5161V34.7851H66.1743V35.4488H66.1444ZM66.1444 39.1295H65.546V36.0824H66.1444V39.1295Z" fill="#313131"/>
<path d="M69.4946 39.1295H68.8963V37.259C68.8963 37.078 68.8365 36.897 68.7168 36.7462C68.5971 36.6255 68.4476 36.5651 68.2681 36.5651C68.0886 36.5651 67.939 36.6255 67.8193 36.7462C67.6997 36.897 67.6398 37.078 67.6398 37.259V39.1295H67.0415V36.0824H67.6398V36.3841C68.0586 35.9618 68.7467 35.9316 69.1955 36.3238C69.4049 36.5651 69.5245 36.8668 69.4946 37.1987V39.1295Z" fill="#313131"/>
<path d="M72.7854 37.7719H70.811C70.811 38.0133 70.8708 38.2244 71.0204 38.4055C71.17 38.5563 71.3794 38.6468 71.5888 38.6468C71.7384 38.6468 71.858 38.6166 72.0076 38.5865C72.1273 38.5261 72.247 38.4356 72.3367 38.3451L72.7256 38.7072C72.576 38.858 72.4265 38.9787 72.217 39.0692C72.0076 39.1597 71.7982 39.1899 71.5888 39.1899C71.2298 39.22 70.8708 39.0692 70.6016 38.8278C70.3323 38.496 70.1828 38.0434 70.2426 37.6211C70.2127 37.1987 70.3323 36.8065 70.6016 36.4746C71.0802 35.9618 71.9179 35.9316 72.4265 36.4143C72.4564 36.4445 72.4564 36.4445 72.4863 36.4746C72.7256 36.7763 72.8453 37.1685 72.8154 37.5607L72.7854 37.7719ZM72.1871 37.3495C72.1871 37.1987 72.1572 37.078 72.0974 36.9272C71.9478 36.5953 71.529 36.4445 71.1999 36.6255C71.0503 36.6858 70.9606 36.8065 70.9007 36.9272C70.8409 37.0478 70.811 37.1987 70.811 37.3495H72.1871Z" fill="#313131"/>
<path d="M75.9866 37.7719H74.0122C74.0122 38.0132 74.072 38.2244 74.2216 38.4054C74.3712 38.5563 74.5806 38.6468 74.79 38.6468C74.9396 38.6468 75.0592 38.6166 75.2088 38.5865C75.3285 38.5261 75.4481 38.4356 75.5379 38.3451L75.9268 38.7071C75.7772 38.858 75.6276 38.9787 75.4182 39.0692C75.2088 39.1597 74.9994 39.1898 74.79 39.1898C74.431 39.22 74.072 39.0692 73.8028 38.8278C73.5335 38.4959 73.3839 38.0434 73.4438 37.621C73.4138 37.1987 73.5335 36.8065 73.8028 36.4746C74.0421 36.2031 74.3712 36.0522 74.7301 36.0522C75.0891 36.0221 75.4481 36.1729 75.6875 36.4444C75.9268 36.7461 76.0465 37.1383 76.0165 37.5305L75.9866 37.7719ZM75.3883 37.3495C75.3883 37.1987 75.3584 37.078 75.2985 36.9271C75.149 36.5953 74.7301 36.4444 74.4011 36.6255C74.2515 36.6858 74.1617 36.8065 74.1019 36.9271C74.0421 37.0478 74.0122 37.1987 74.0122 37.3495H75.3883Z" fill="#313131"/>
<path d="M78.8583 36.3238L78.4095 36.7763C78.2899 36.6556 78.1403 36.5651 77.9608 36.5651C77.8112 36.5651 77.6317 36.6254 77.542 36.7461C77.4223 36.897 77.3625 37.0478 77.3625 37.2288V39.0993H76.7642V36.0522H77.3625V36.3841C77.4522 36.2634 77.5719 36.1729 77.6916 36.1126C77.8411 36.0522 77.9907 36.0221 78.1702 36.0221C78.4095 36.0221 78.6788 36.1126 78.8583 36.3238Z" fill="#313131"/>
<path d="M80.0253 35.4488H79.3672V34.7851H80.0253V35.4488ZM79.9954 39.1295H79.3971V36.0824H79.9954V39.1295Z" fill="#313131"/>
<path d="M83.376 39.1295H82.7776V37.259C82.8076 37.078 82.7178 36.897 82.5981 36.7461C82.4785 36.6255 82.3289 36.5651 82.1494 36.5651C81.9699 36.5651 81.8203 36.6255 81.7007 36.7461C81.581 36.897 81.5212 37.078 81.5212 37.259V39.1295H80.9229V36.0824H81.5212V36.3841C81.7306 36.1428 82.0297 36.0221 82.3289 36.0523C82.5981 36.0523 82.8674 36.1428 83.0768 36.3238C83.2862 36.5651 83.4059 36.8668 83.376 37.1987V39.1295Z" fill="#313131"/>
<path d="M86.5766 39.0993C86.6066 39.7631 86.098 40.3664 85.4398 40.3966C85.38 40.3966 85.3501 40.3966 85.2903 40.3966C85.0808 40.3966 84.8714 40.3664 84.6919 40.3061C84.5124 40.2458 84.3629 40.1251 84.2133 40.0044L84.6022 39.6122C84.7817 39.7932 85.021 39.8837 85.2603 39.8837C85.4698 39.9139 85.6492 39.8234 85.7988 39.6726C85.9185 39.5217 85.9783 39.3105 85.9783 39.0993V38.7071C85.6492 39.1597 84.9911 39.22 84.5424 38.8882C84.3629 38.7373 84.2133 38.5261 84.1834 38.2848C84.1235 38.0434 84.1235 37.8021 84.1235 37.5305C84.1235 37.2892 84.1534 37.0177 84.1834 36.7763C84.2133 36.5953 84.3329 36.4143 84.4526 36.2634C84.9013 35.8712 85.5894 35.9316 85.9783 36.3539V36.0221H86.5766V39.0993ZM85.9484 37.8926C85.9484 37.7719 85.9783 37.6512 85.9783 37.5305C85.9783 37.4099 85.9783 37.2892 85.9484 37.1685C85.9185 37.078 85.9185 36.9573 85.8587 36.8668C85.8287 36.7763 85.7689 36.6858 85.6792 36.6255C85.5894 36.5651 85.4697 36.535 85.3501 36.535C85.2304 36.535 85.1108 36.5651 85.021 36.6255C84.9313 36.6858 84.8714 36.7461 84.8415 36.8668C84.8116 36.9573 84.7817 37.078 84.7518 37.1685C84.7218 37.2892 84.7219 37.4099 84.7219 37.5305C84.7219 37.6512 84.7218 37.7719 84.7518 37.8926C84.7518 37.9831 84.7817 38.1038 84.8415 38.1943C84.8714 38.2848 84.9313 38.3753 85.021 38.4356C85.1108 38.496 85.2304 38.5261 85.3501 38.5261C85.4697 38.5261 85.5894 38.496 85.6792 38.4356C85.7689 38.3753 85.8287 38.3149 85.8587 38.1943C85.8886 38.1038 85.9185 37.9831 85.9484 37.8926Z" fill="#313131"/>
</g>
<defs>
<clipPath id="clip0_90_849">
<rect width="89" height="41" fill="white"/>
</clipPath>
</defs>
</svg>
